<svg width="180" height="54" viewBox="0 0 180 54" fill="none" xmlns="http://www.w3.org/2000/svg">
<path d="M165.666 0.000173333H14.3422C13.7906 0.000173333 13.2456 0.000173333 12.6955 0.00284C12.235 0.00550667 11.7781 0.0132533 11.3132 0.0197733C10.3031 0.0303091 9.29543 0.109075 8.29888 0.255387C7.30373 0.404884 6.33976 0.686728 5.43956 1.09139C4.54046 1.49947 3.71893 2.02973 3.00477 2.66293C2.28686 3.29436 1.68842 4.0242 1.23248 4.82439C0.775271 5.62299 0.458244 6.47876 0.292343 7.36215C0.124866 8.24442 0.0347448 9.13687 0.0227888 10.0315C0.00882972 10.4403 0.00735559 10.8504 0 11.2593V42.0783C0.00735559 42.4923 0.00882972 42.8934 0.0227888 43.3075C0.0347485 44.2021 0.12487 45.0945 0.292343 45.9767C0.457785 46.8606 0.774831 47.7169 1.23248 48.5158C1.68821 49.3134 2.28673 50.0403 3.00477 50.6682C3.71622 51.3042 4.53828 51.8348 5.43956 52.2398C6.33975 52.6455 7.30362 52.929 8.29888 53.0808C9.2956 53.226 10.3032 53.3048 11.3132 53.3166C11.7781 53.3256 12.235 53.3308 12.6955 53.3308C13.2456 53.3335 13.7906 53.3335 14.3422 53.3335H165.666C166.207 53.3335 166.756 53.3335 167.296 53.3308C167.755 53.3308 168.225 53.3256 168.683 53.3166C169.691 53.3054 170.697 53.2266 171.692 53.0808C172.69 52.928 173.657 52.6445 174.562 52.2398C175.462 51.8346 176.284 51.304 176.995 50.6682C177.711 50.0378 178.311 49.3115 178.772 48.5158C179.226 47.7163 179.54 46.8601 179.703 45.9767C179.871 45.0944 179.964 44.2022 179.982 43.3075C179.988 42.8934 179.988 42.4923 179.988 42.0783C180 41.5939 180 41.1122 180 40.6199V12.715C180 12.2267 180 11.7424 179.988 11.2593C179.988 10.8504 179.988 10.4403 179.982 10.0314C179.964 9.13674 179.871 8.24449 179.703 7.36209C179.54 6.47922 179.226 5.62351 178.772 4.82433C177.843 3.22043 176.371 1.91487 174.562 1.09127C173.657 0.687596 172.69 0.405827 171.692 0.255267C170.697 0.10831 169.691 0.029517 168.683 0.0195867C168.225 0.01308 167.755 0.00526667 167.296 0.00266667C166.756 0 166.207 0 165.666 0V0.000173333Z" fill="white"/>
<path d="M12.5733 52.1708C12.1142 52.1708 11.6662 52.1656 11.2107 52.1566C10.2671 52.1457 9.32572 52.073 8.39426 51.939C7.52572 51.8066 6.68434 51.5604 5.89787 51.2084C5.11861 50.8592 4.40786 50.4015 3.79286 49.8526C3.16895 49.3102 2.64951 48.6811 2.25514 47.9902C1.85642 47.2949 1.58049 46.5495 1.43694 45.7802C1.28193 44.9535 1.19806 44.1176 1.18606 43.2796C1.17651 42.9984 1.164 42.0619 1.164 42.0619V11.2547C1.164 11.2547 1.17732 10.3326 1.18614 10.0618C1.19763 9.22515 1.28101 8.39054 1.43556 7.56514C1.57937 6.79367 1.85552 6.04618 2.25445 5.34854C2.64737 4.65815 3.16392 4.02857 3.78407 3.48422C4.40352 2.93469 5.11654 2.47457 5.89713 2.12064C6.68179 1.76974 7.52158 1.52521 8.38837 1.39523C9.32289 1.25996 10.2675 1.18682 11.2144 1.17644L12.574 1.16016H167.427L168.802 1.17709C169.741 1.18696 170.677 1.25944 171.603 1.39393C172.478 1.52553 173.327 1.77177 174.12 2.12454C175.684 2.83782 176.957 3.96629 177.759 5.35179C178.152 6.04461 178.424 6.78601 178.566 7.55081C178.722 8.38299 178.81 9.22416 178.828 10.0676C178.832 10.4453 178.832 10.851 178.832 11.2547C178.844 11.7548 178.844 12.2308 178.844 12.7107V40.6215C178.844 41.106 178.844 41.5787 178.832 42.0554C178.832 42.4891 178.832 42.8863 178.826 43.2952C178.809 44.1236 178.723 44.9498 178.569 45.7671C178.428 46.542 178.154 47.2932 177.755 47.9942C177.358 48.6776 176.841 49.3012 176.225 49.8422C175.609 50.394 174.897 50.8545 174.116 51.2058C173.325 51.5606 172.477 51.8077 171.603 51.939C170.671 52.0737 169.73 52.1464 168.786 52.1566C168.345 52.1656 167.883 52.1708 167.434 52.1708L165.801 52.1735L12.5733 52.1708Z" fill="white"/>
</svg>
